<?xml version="1.0" standalone="no"?>
<!DOCTYPE svg PUBLIC "-//W3C//DTD SVG 20010904//EN"
 "http://www.w3.org/TR/2001/REC-SVG-20010904/DTD/svg10.dtd">
<svg version="1.0" xmlns="http://www.w3.org/2000/svg"
 width="661.000000pt" height="661.000000pt" viewBox="0 0 661.000000 661.000000"
 preserveAspectRatio="xMidYMid meet">
<metadata>
Created by potrace 1.11, written by Peter Selinger 2001-2013
</metadata>
<g transform="translate(0.000000,661.000000) scale(0.100000,-0.100000)"
fill="#000000" stroke="none">
<path d="M3059 6595 c-2 -1 -38 -6 -79 -10 -41 -4 -82 -9 -91 -10 -9 -2 -40
-6 -70 -10 -44 -6 -252 -46 -309 -60 -140 -35 -374 -113 -476 -160 -30 -14
-57 -25 -60 -25 -10 0 -244 -119 -317 -162 -112 -64 -336 -214 -357 -238 -3
-3 -29 -25 -59 -48 -380 -299 -727 -744 -933 -1196 -83 -184 -189 -489 -213
-616 -3 -14 -14 -70 -25 -125 -11 -55 -22 -122 -26 -150 -3 -27 -8 -57 -9 -66
-27 -142 -27 -678 0 -839 2 -14 6 -43 10 -65 16 -113 30 -182 61 -308 35 -142
109 -373 146 -455 11 -26 27 -63 35 -82 8 -19 43 -91 78 -160 220 -441 551
-837 955 -1144 400 -304 892 -522 1377 -611 16 -3 37 -7 48 -9 11 -2 43 -7 70
-11 28 -4 61 -10 75 -12 14 -3 187 -7 385 -9 272 -2 385 1 464 11 58 8 112 17
120 20 9 2 32 7 51 9 84 11 275 59 415 104 718 234 1331 702 1746 1333 42 63
79 121 82 129 4 8 17 31 28 50 23 38 122 235 158 314 62 136 191 526 174 526
-3 0 0 7 7 15 7 8 10 15 7 15 -3 0 -1 15 4 33 15 50 57 316 66 414 10 113 10
536 0 633 -8 74 -32 241 -42 290 -22 113 -29 144 -46 210 -203 780 -667 1443
-1333 1904 -171 119 -419 252 -632 340 -140 58 -443 148 -569 171 -16 2 -56 9
-87 15 -99 18 -111 19 -168 26 -30 3 -66 8 -80 11 -28 6 -576 14 -581 8z"/>
</g>
</svg>
